<?xml version="1.0" encoding="utf-8"?>
<svg version="1.1" id="Layer_1" xmlns="http://www.w3.org/2000/svg" xmlns:xlink="http://www.w3.org/1999/xlink" x="0px" y="0px"
	 viewBox="0 0 24 24" style="enable-background:new 0 0 24 24;" xml:space="preserve">
<style type="text/css">
	.st0{fill:#32A852;stroke:#32A852;stroke-miterlimit:10;}
</style>
<path class="st0" d="M14.5,2.1c0.3-0.2,0.7-0.2,1,0l6,3.5C21.8,5.8,22,6.1,22,6.5V21c0,0.6-0.4,1-1,1h-6c-0.6,0-1-0.4-1-1V3
	C14,2.6,14.2,2.3,14.5,2.1z M16,4.7V20h4V7L16,4.7z M3,22c-0.6,0-1-0.4-1-1V3c0-0.6,0.4-1,1-1s1,0.4,1,1v18C4,21.6,3.6,22,3,22z
	 M9,22c-0.6,0-1-0.4-1-1V3c0-0.6,0.4-1,1-1s1,0.4,1,1v18C10,21.6,9.6,22,9,22z"/>
</svg>
